<svg width="14" height="14" viewBox="0 0 14 14" fill="currentColor" xmlns="http://www.w3.org/2000/svg">
<path fill-rule="evenodd" clip-rule="evenodd" d="M6.375 1.48281C5.38611 0.928918 3.53626 0.251388 1.49642 0.00937489C0.673762 -0.088228 0 0.589684 0 1.41811V9.41811C0 10.2466 0.677027 10.9067 1.49213 11.0547C3.33255 11.3889 4.86332 12.2714 5.8401 12.9691C6.00374 13.086 6.18487 13.1745 6.375 13.2347V1.48281ZM7.625 13.2349C7.81487 13.1748 7.99576 13.0864 8.15919 12.9697C9.13594 12.2719 10.667 11.3891 12.5079 11.0549C13.323 10.9069 14 10.2467 14 9.41825V1.41826C14 0.589827 13.3262 -0.0880855 12.5036 0.00951688C10.4637 0.25153 8.61389 0.928968 7.625 1.48283V13.2349Z" fill="currentColor"/>
</svg>
