<svg width="18" height="18" viewBox="0 0 18 18" fill="currentColor" xmlns="http://www.w3.org/2000/svg">
<path d="M3.60005 3.59998C2.60594 3.59998 1.80005 4.40586 1.80005 5.39998V6.29998H16.2V5.39998C16.2 4.40586 15.3942 3.59998 14.4 3.59998H3.60005Z" fill="currentColor"/>
<path fillRule="evenodd" clipRule="evenodd" d="M16.2 8.09998H1.80005V12.6C1.80005 13.5941 2.60594 14.4 3.60005 14.4H14.4C15.3942 14.4 16.2 13.5941 16.2 12.6V8.09998ZM3.60005 11.7C3.60005 11.2029 4.00299 10.8 4.50005 10.8H5.40005C5.8971 10.8 6.30005 11.2029 6.30005 11.7C6.30005 12.197 5.8971 12.6 5.40005 12.6H4.50005C4.00299 12.6 3.60005 12.197 3.60005 11.7ZM8.10005 10.8C7.60299 10.8 7.20005 11.2029 7.20005 11.7C7.20005 12.197 7.60299 12.6 8.10005 12.6H9.00005C9.4971 12.6 9.90005 12.197 9.90005 11.7C9.90005 11.2029 9.4971 10.8 9.00005 10.8H8.10005Z" fill="currentColor"/>
</svg>
