<svg width="14" height="11" viewBox="0 0 14 11" fill="currentColor" xmlns="http://www.w3.org/2000/svg">
<path fillRule="evenodd" clipRule="evenodd" d="M0 9.5C0 10.3284 0.670533 11 1.49768 11H12.5023C13.3295 11 14 10.3284 14 9.5V7.46597C14 7.24021 13.8489 7.04245 13.6314 6.98339C12.979 6.80629 12.4997 6.20856 12.4997 5.5C12.4997 4.79144 12.979 4.19371 13.6314 4.01661C13.8489 3.95755 14 3.75979 14 3.53403V1.5C14 0.67157 13.3295 0 12.5023 0H1.49768C0.670535 0 0 0.67157 0 1.5V3.52963C0 3.75697 0.153127 3.95569 0.372701 4.01331C1.03138 4.18615 1.51674 4.78694 1.51674 5.5C1.51674 6.21306 1.03138 6.81385 0.372701 6.98669C0.153127 7.04431 0 7.24303 0 7.47037V9.5ZM4.96245 8.44194L9.96245 3.44194C10.2065 3.19786 10.2065 2.80214 9.96245 2.55806C9.71837 2.31398 9.32264 2.31398 9.07857 2.55806L4.07857 7.55806C3.83449 7.80214 3.83449 8.19786 4.07857 8.44194C4.32264 8.686 4.71837 8.686 4.96245 8.44194ZM4.02051 3.5C4.02051 2.94772 4.46822 2.5 5.02051 2.5C5.57279 2.5 6.02051 2.94772 6.02051 3.5C6.02051 4.05228 5.57279 4.5 5.02051 4.5C4.46822 4.5 4.02051 4.05228 4.02051 3.5ZM8.02051 7.5C8.02051 6.94772 8.46822 6.5 9.02051 6.5C9.57279 6.5 10.0205 6.94772 10.0205 7.5C10.0205 8.05228 9.57279 8.5 9.02051 8.5C8.46822 8.5 8.02051 8.05228 8.02051 7.5Z" fill="currentColor"/>
</svg>
