<svg width="18" height="18" viewBox="0 0 18 18" fill="currentColor" xmlns="http://www.w3.org/2000/svg">
<path d="M9.63644 2.06359C9.28497 1.71212 8.71512 1.71212 8.36365 2.06359L2.06365 8.36359C1.71218 8.71506 1.71218 9.28491 2.06365 9.63638C2.41512 9.98786 2.98497 9.98786 3.33644 9.63638L3.60005 9.37278V15.3C3.60005 15.797 4.00299 16.2 4.50005 16.2H6.30005C6.7971 16.2 7.20005 15.797 7.20005 15.3V13.5C7.20005 13.0029 7.60299 12.6 8.10005 12.6H9.90005C10.3971 12.6 10.8 13.0029 10.8 13.5V15.3C10.8 15.797 11.203 16.2 11.7 16.2H13.5C13.9971 16.2 14.4 15.797 14.4 15.3V9.37278L14.6637 9.63638C15.0151 9.98786 15.585 9.98786 15.9364 9.63638C16.2879 9.28491 16.2879 8.71506 15.9364 8.36359L9.63644 2.06359Z" fill="currentColor"/>
</svg>
