<svg width="14" height="16" viewBox="0 0 14 16" fill="currentColor" xmlns="http://www.w3.org/2000/svg">
<path fillRule="evenodd" clipRule="evenodd" d="M6.14286 0H1.71429C0.767509 0 0 0.767512 0 1.71429V14.2857C0 15.2325 0.767509 16 1.71429 16H6.14286V0ZM7.57143 16H12C12.9467 16 13.7143 15.2325 13.7143 14.2857V1.71429C13.7143 0.767512 12.9467 0 12 0H7.57143V16ZM9.71429 6.67034C10.1088 6.67034 10.4286 6.99014 10.4286 7.38463V8.61539C10.4286 9.00989 10.1088 9.32968 9.71429 9.32968C9.31979 9.32968 9 9.00989 9 8.61539V7.38463C9 6.99014 9.31979 6.67034 9.71429 6.67034ZM4.71429 7.38463C4.71429 6.99014 4.39449 6.67034 4 6.67034C3.60551 6.67034 3.28571 6.99014 3.28571 7.38463V8.61539C3.28571 9.00989 3.60551 9.32968 4 9.32968C4.39449 9.32968 4.71429 9.00989 4.71429 8.61539V7.38463Z" fill="currentColor"/>
</svg>
