<svg width="25" height="20" viewBox="0 0 25 20" fill="currentColor" xmlns="http://www.w3.org/2000/svg">
<path fillRule="evenodd" clipRule="evenodd" d="M0 16.9643C0 18.4436 1.19738 19.6429 2.67443 19.6429H22.3255C23.8027 19.6429 25 18.4436 25 16.9643V13.3321C25 12.9289 24.7302 12.5758 24.3418 12.4703C23.1768 12.1541 22.3209 11.0867 22.3209 9.82143C22.3209 8.55614 23.1768 7.48877 24.3418 7.17252C24.7302 7.06705 25 6.71391 25 6.31077V2.67857C25 1.19923 23.8027 0 22.3255 0H2.67443C1.19738 0 0 1.19923 0 2.67857V6.30291C0 6.70888 0.273441 7.06373 0.665537 7.16663C1.84175 7.47527 2.70846 8.54811 2.70846 9.82143C2.70846 11.0948 1.84175 12.1676 0.665537 12.4762C0.273441 12.5791 0 12.934 0 13.3399V16.9643ZM8.86152 15.0749L17.7901 6.14632C18.2259 5.71046 18.2259 5.00382 17.7901 4.56797C17.3542 4.13211 16.6476 4.13211 16.2117 4.56797L7.28316 13.4965C6.8473 13.9324 6.8473 14.639 7.28316 15.0749C7.719 15.5107 8.42566 15.5107 8.86152 15.0749ZM7.17948 6.25C7.17948 5.26379 7.97896 4.46429 8.9652 4.46429C9.95141 4.46429 10.7509 5.26379 10.7509 6.25C10.7509 7.23621 9.95141 8.03572 8.9652 8.03572C7.97896 8.03572 7.17948 7.23621 7.17948 6.25ZM14.3223 13.3929C14.3223 12.4066 15.1218 11.6071 16.1081 11.6071C17.0943 11.6071 17.8937 12.4066 17.8937 13.3929C17.8937 14.3791 17.0943 15.1786 16.1081 15.1786C15.1218 15.1786 14.3223 14.3791 14.3223 13.3929Z" fill="currentColor"/>
</svg>
