<svg width="17" height="17" viewBox="0 0 17 17" fill="currentColor" xmlns="http://www.w3.org/2000/svg">
<g clip-path="url(#clip0_543_928)">
<path fill-rule="evenodd" clip-rule="evenodd" d="M6.67854 0C6.00791 0 5.46425 0.543655 5.46425 1.21429V1.82143C5.46425 2.49207 6.00791 3.03571 6.67854 3.03571H10.3214C10.992 3.03571 11.5357 2.49207 11.5357 1.82143V1.21429C11.5357 0.543654 10.992 0 10.3214 0H6.67854ZM3.94636 1.21429H3.33925C2.3333 1.21429 1.51782 2.02976 1.51782 3.03571V15.1786C1.51782 16.1845 2.3333 17 3.33925 17H13.6607C14.6666 17 15.4821 16.1845 15.4821 15.1786V3.03571C15.4821 2.02976 14.6666 1.21429 13.6607 1.21429H13.0535V1.82143C13.0535 3.33035 11.8303 4.55357 10.3214 4.55357H6.6785C5.16958 4.55357 3.94636 3.33035 3.94636 1.82143V1.21429ZM12.0821 7.16429C12.4845 7.46607 12.566 8.03691 12.2643 8.43929L8.62139 13.2964C8.33139 13.6831 7.78981 13.7758 7.38764 13.5077L5.56621 12.2934C5.14772 12.0145 5.03464 11.449 5.31363 11.0305C5.59264 10.612 6.15807 10.499 6.57657 10.778L7.68116 11.5144L10.8071 7.34643C11.1089 6.94405 11.6797 6.8625 12.0821 7.16429Z" fill="currentColor"/>
</g>
<defs>
<clipPath id="clip0_543_928">
<rect width="17" height="17" fill="currentColor"/>
</clipPath>
</defs>
</svg>
